<?xml version="1.0" ?><svg height="74.666664" id="svg9" version="1.1" viewBox="0 0 53.333332 74.666664" width="53.333332" xmlns="http://www.w3.org/2000/svg" xmlns:svg="http://www.w3.org/2000/svg"><defs id="defs13"><clipPath clipPathUnits="userSpaceOnUse" id="clipPath367"><path d="M 0,64 H 64 V 0 H 0 Z" id="path365"/></clipPath></defs><g id="g359" transform="matrix(1.3333333,0,0,-1.3333333,-16,80.000398)"><g id="g361"><g clip-path="url(#clipPath367)" id="g363"><g id="g369" transform="translate(50,23.0303)"><path d="m 0,0 c 0,-4.33 -8.24,-7.99 -18,-7.99 -9.76,0 -18,3.66 -18,7.99 v 11 c 3.21,-3.33 9.99,-5.57 18,-5.57 8.01,0 14.79,2.24 18,5.57 z m -35.36,21.95 c 0.18,-0.16 0.38,-0.32 0.58,-0.471 0.17,-0.139 0.35,-0.269 0.53,-0.389 0.08,-0.06 0.16,-0.12 0.25,-0.17 v -9.09 c -1.27,1.08 -2,2.3 -2,3.59 v 7.13 c 0.06,-0.06 0.11,-0.11 0.17,-0.15 0.15,-0.171 0.31,-0.31 0.47,-0.45 M -18,34.97 c 9.76,0 18,-3.66 18,-7.991 0,-2.179 -2.11,-4.199 -5.46,-5.669 0.3,0.52 0.46,1.07 0.46,1.64 0,3.43 -5.59,6.01 -13,6.01 -7.41,0 -13,-2.58 -13,-6.01 0,-0.57 0.16,-1.12 0.46,-1.64 -0.68,0.3 -1.3,0.62 -1.87,0.95 -0.06,0.05 -0.13,0.09 -0.2,0.12 -2.13,1.32 -3.39,2.91 -3.39,4.599 0,4.331 8.24,7.991 18,7.991 M -7,18.59 c 0.49,0.16 0.95,0.32 1.41,0.5 0.25,0.1 0.5,0.2 0.74,0.31 0.29,0.12 0.57,0.25 0.85,0.39 V 10.46 C -4.88,9.979 -5.89,9.53 -7,9.15 Z m -10,-1.63 c 0.71,0.019 1.4,0.07 2.07,0.14 0.03,0 0.05,0 0.07,0.01 0.06,0 0.12,0 0.18,0.01 0.04,0.01 0.08,0.01 0.12,0.02 h 0.05 c 0.11,0.01 0.22,0.02 0.33,0.03 0.06,0 0.12,0.01 0.18,0.01 V 7.64 c -0.98,-0.1 -1.98,-0.17 -3,-0.201 z m -10,1.07 c 0.02,-0.01 0.03,-0.01 0.04,-0.01 0.36,-0.09 0.73,-0.17 1.1,-0.25 0.49,-0.11 0.99,-0.2 1.5,-0.28 0.12,-0.02 0.24,-0.04 0.36,-0.06 V 7.91 c -1.05,0.17 -2.05,0.38 -3,0.63 z M 2,15.42 v 11.559 c 0,5.601 -8.79,9.991 -20,9.991 -11.21,0 -20,-4.39 -20,-9.991 V 15.42 c 0,-0.09 0,-0.191 0.02,-0.28 V 15.12 C -37.99,15.06 -38,15 -38,14.94 V 0 c 0,-2.3 1.48,-4.391 4,-6.061 v -4.87 c 0,-4.54 7.03,-8.099 16,-8.099 8.97,0 16,3.559 16,8.099 v 4.87 C 0.52,-4.391 2,-2.3 2,0 V 14.94 C 2,15 1.99,15.06 1.98,15.12 v 0.02 C 2,15.229 2,15.33 2,15.42" id="path371" style="fill:#231f20;fill-opacity:1;fill-rule:nonzero;stroke:none"/></g></g></g></g></svg>